<svg width="12" height="8" viewBox="0 0 12 8" fill="none" xmlns="http://www.w3.org/2000/svg">
<path d="M0 0V0.704545H6.69318V5.98864H4.52459C4.36748 5.38308 3.82286 4.93182 3.17045 4.93182C2.51805 4.93182 1.97343 5.38308 1.81632 5.98864H1.40909V4.22727H0.704545V6.69318H1.81632C1.97343 7.29874 2.51805 7.75 3.17045 7.75C3.82286 7.75 4.36748 7.29874 4.52459 6.69318H7.45268C7.60979 7.29874 8.15441 7.75 8.80682 7.75C9.45923 7.75 10.0038 7.29874 10.161 6.69318H11.2727V3.82005L11.2505 3.76474L10.546 1.6511L10.4695 1.40909H7.39773V0H0ZM0.352273 1.40909V2.11364H3.52273V1.40909H0.352273ZM7.39773 2.11364H9.96262L10.5682 3.91903V5.98864H10.161C10.0038 5.38308 9.45923 4.93182 8.80682 4.93182C8.15441 4.93182 7.60979 5.38308 7.45268 5.98864H7.39773V2.11364ZM0.704545 2.81818V3.52273H2.81818V2.81818H0.704545ZM3.17045 5.63636C3.56394 5.63636 3.875 5.94742 3.875 6.34091C3.875 6.7344 3.56394 7.04545 3.17045 7.04545C2.77697 7.04545 2.46591 6.7344 2.46591 6.34091C2.46591 5.94742 2.77697 5.63636 3.17045 5.63636ZM8.80682 5.63636C9.20031 5.63636 9.51136 5.94742 9.51136 6.34091C9.51136 6.7344 9.20031 7.04545 8.80682 7.04545C8.41333 7.04545 8.10227 6.7344 8.10227 6.34091C8.10227 5.94742 8.41333 5.63636 8.80682 5.63636Z" fill="#EFEFEF"/>
</svg>
